<?xml version="1.0" encoding="UTF-8" standalone="no"?>
<!-- Created with Inkscape (http://www.inkscape.org/) -->

<svg
   width="3840"
   height="1080"
   viewBox="0 0 3840 1080"
   version="1.1"
   id="SVGRoot"
   xml:space="preserve"
   sodipodi:docname="Logo-Slogan2.svg"
   inkscape:version="1.2.2 (b0a8486541, 2022-12-01)"
   xmlns:inkscape="http://www.inkscape.org/namespaces/inkscape"
   xmlns:sodipodi="http://sodipodi.sourceforge.net/DTD/sodipodi-0.dtd"
   xmlns="http://www.w3.org/2000/svg"
   xmlns:svg="http://www.w3.org/2000/svg"><sodipodi:namedview
     id="namedview17"
     pagecolor="#505050"
     bordercolor="#eeeeee"
     borderopacity="1"
     inkscape:showpageshadow="0"
     inkscape:pageopacity="0"
     inkscape:pagecheckerboard="0"
     inkscape:deskcolor="#505050"
     showgrid="false"
     inkscape:zoom="0.32317708"
     inkscape:cx="1923.0943"
     inkscape:cy="541.49879"
     inkscape:window-width="1920"
     inkscape:window-height="1013"
     inkscape:window-x="0"
     inkscape:window-y="0"
     inkscape:window-maximized="1"
     inkscape:current-layer="SVGRoot" /><defs
     id="defs119"><rect
       x="3755.8918"
       y="80.975136"
       width="3963.8833"
       height="819.19025"
       id="rect480" /></defs><g
     id="layer1"><path
       id="path482"
       style="fill:#2b2200;stroke-width:0.966928"
       d="m 854.92578,6.88281 -0.0215,0.01 -0.006,-0.006 -0.0195,0.0156 -429.27527,180.61712 -136.20117,-160.29297 17.32617,210.69531 -192.82422,79.08399 204.69532,46.2793 14.24804,211.41211 109.62696,-179.7461 193.87109,62.89258 5.24609,5.82617 11.16407,11.61719 5.48633,9.79883 3.71484,9.05468 2.46289,9.99805 -0.0293,10.30078 -1.78906,10.50391 -5.97266,11.9707 -11.43945,11.19922 -172.91797,141.97656 -1.63476,1.54688 -1.74219,1.61719 3.05469,3.51171 19.79882,23.60743 34.375,41.69726 152.04688,-124.26367 31.73633,-26.54102 10.27734,-9.89062 12.37891,-15.40234 8.59375,-14.53125 7.04101,-16.64258 2.01368,-10.88867 2.49218,-10.76563 0.41992,-12.40039 0.16993,-11.70703 -0.77149,-14.46094 -2.16797,-14.6875 -2.82031,-14.45898 -7.4668,-17.69336 -6.5664,-11.72266 -11.21289,-16.1289 -22.02539,-25.84375 -22.2793,-24.50586 -18.35547,-21.46289 -4.81641,-7.81055 -4.71289,-7.08008 -2.68945,-5.84375 -2.48047,-6.62695 -1.13672,-7.08008 0.96875,-6.88281 2.31055,-6.42774 3.98633,-7.92383 5.17969,-7.75781 8.0625,-7.37109 L 779.375,183.6582 906.64062,80.73633 l 2.38672,-1.95508 2.15235,-1.75391 -0.8086,-0.90429 -1.13086,-1.28711 L 856.19531,8.40039 855.12109,7.13867 854.9082,6.89648 Z m -10.18555,8.18164 -3.87109,3.19532 -85.24805,68.39843 z m 477.66207,148.10938 -111.0254,374.18945 c -3.7009,12.95009 -4.7572,25.21771 -4.2285,36.12305 2.6435,32.03444 28.549,44.30469 61.3282,44.30469 h 13.746 l 18.504,-62.0254 h -4.7579 c -21.6765,0 -23.2623,-9.54088 -16.9179,-31.35156 l 106.7968,-361.24023 z m 127.416,0 -111.0253,374.18945 c -3.7009,12.95009 -4.7612,25.21771 -4.2325,36.12305 2.6435,32.03444 28.5529,44.30469 61.3321,44.30469 h 13.7461 l 18.5039,-62.0254 h -4.7578 c -21.6766,0 -23.2643,-9.54088 -16.92,-31.35156 l 106.7989,-361.24023 z m 703.1641,0 -134.2891,454.61719 h 62.3868 l 58.1562,-194.9336 h 39.6524 l 1.5839,194.9336 h 66.6172 l -4.7578,-208.56641 c 40.7096,-21.81067 67.6721,-53.84533 79.8321,-96.10352 l 12.6914,-42.25781 c 18.5043,-62.02412 -15.8619,-107.68945 -71.375,-107.68945 z m 497.502,0 -105.211,355.10547 c -3.7009,11.58693 -5.2857,22.49114 -5.8144,33.39648 -1.5861,42.25819 26.9617,70.20313 67.1426,70.20313 26.4348,0 51.8127,-9.54066 76.1328,-28.625 24.8487,-19.08434 41.2381,-41.5765 49.6972,-68.83985 l 47.0547,-160.17383 c 5.8156,-18.40276 6.8736,-30.67186 0.5293,-53.8457 -3.7009,-13.63168 -19.0333,-21.12891 -44.9394,-21.12891 -24.8488,0 -48.1139,12.26952 -69.2618,35.44336 l 48.1133,-161.53515 z m 624.3886,0 -18.5039,64.06836 h 63.4414 l 18.5039,-64.06836 z m -2261.2265,32.0332 -78.25002,49.07422 -14.27344,49.07422 h -31.19335 l -15.33204,51.11914 h 31.19336 l -80.89062,273.31641 h 63.44336 l 80.89062,-273.31641 h 33.83593 l 14.8047,-51.11914 h -33.30669 z m 2183.5097,0 -78.25,49.07422 -14.2754,49.07422 h -31.1914 l -15.332,51.11914 h 31.1934 l -80.8907,273.31641 h 63.4415 l 80.8925,-273.31641 h 33.8379 l 14.8028,-51.11914 h -33.3086 z m -999.2343,28.62695 h 44.9394 c 26.4348,0 38.0659,17.72126 29.0781,47.71094 l -12.6875,42.25781 c -7.9305,26.58177 -27.4949,51.80079 -59.2168,51.80079 h -43.8828 z m -1057.92,65.43164 c -25.906,0 -51.284,10.22432 -76.1328,29.99024 -24.32,19.76593 -40.7082,42.93972 -48.6386,69.52148 L 978.75,512.14453 c -2.64348,9.54217 -4.75766,19.76642 -6.34375,29.30859 -6.87306,49.07403 23.79256,81.10743 68.20315,81.10743 28.5495,0 51.2834,-8.17899 68.7304,-23.17383 17.9757,-14.99484 30.664,-27.94416 37.5371,-37.48633 7.4017,-10.22376 12.1599,-20.44811 15.3321,-30.67187 l 2.1133,-7.4961 h -62.9122 c -6.873,16.35801 -21.1491,32.03321 -42.2968,32.0332 -13.2175,0 -25.9086,-13.63211 -21.1504,-28.62695 l 14.2754,-48.39258 h 125.3008 l 26.9667,-89.96875 c 16.9183,-57.25303 -13.2203,-99.51171 -64.5039,-99.51172 z m 488.5157,0 c -57.0993,0 -108.3815,49.75589 -122.6563,96.78516 h 62.9121 c 6.8731,-16.35801 22.7345,-32.0332 43.3535,-32.0332 8.4592,0 13.7478,2.72518 16.92,9.54101 5.8157,12.26851 3.7009,17.72185 0,31.35352 l -8.461,27.94531 h -42.2929 c -13.2174,0 -24.8506,2.04527 -35.9532,6.13477 -10.574,4.0895 -23.7922,12.26855 -38.5957,23.85547 -15.3322,12.2685 -26.4361,29.98832 -33.8379,53.84375 l -10.5703,36.80664 c -3.7009,12.95008 -8.4606,26.58122 -4.7597,40.21289 4.7583,25.90018 21.1465,38.16797 48.6386,38.16797 30.1358,0 53.4009,-18.40193 69.2618,-36.80469 l -9.5176,32.7168 h 63.4433 l 68.7325,-232.42188 c 16.3895,-55.20828 -17.9772,-96.10351 -66.6172,-96.10352 z m 297.1289,0 c -35.4227,0 -71.3768,18.40412 -93.5821,39.53321 l 10.0469,-34.76172 h -63.4433 l -96.2247,324.43555 h 63.4454 l 56.5703,-190.16211 c 11.1027,-36.80552 41.7653,-74.29297 86.1758,-74.29297 5.8156,0 12.1616,0.6818 16.9199,2.72656 z m 1522.6347,0 c -57.6278,0 -109.4381,55.20901 -123.7129,102.23829 l -37.5371,126.77539 c -3.1722,11.58693 -5.2877,22.49114 -5.8164,33.39648 -1.0574,42.25819 26.9642,70.20313 67.6739,70.20313 25.9061,0 51.2835,-9.54066 75.6035,-28.625 26.4348,-19.76592 41.7673,-42.94 50.2265,-72.92969 h -62.914 c -4.7583,17.72118 -20.0918,36.12305 -40.711,36.12305 -23.2626,0 -27.494,-14.31255 -20.6211,-38.16797 l 37.5372,-126.77539 c 3.1722,-9.54217 6.8764,-17.03952 11.6347,-22.49219 7.9304,-8.86058 16.916,-15.67578 30.6621,-15.67578 19.0331,0 25.9074,17.72046 20.0918,38.16797 h 62.3867 c 17.447,-57.93462 -12.6916,-102.23829 -64.5039,-102.23829 z m -986.0117,0.68165 c -14.8036,0 -29.0812,2.72713 -43.8847,9.54296 -35.9513,16.35801 -67.6701,49.07367 -79.8301,89.28711 l -38.0664,129.50196 c -3.1722,9.54217 -4.759,18.40303 -5.8164,26.58203 -6.3444,47.71086 28.0192,77.69922 72.4297,77.69922 13.2174,0 28.0232,-4.08852 43.3554,-11.58594 35.4227,-17.03958 66.0866,-48.39232 78.7754,-92.01367 l 38.5957,-129.50196 c 6.873,-24.53701 7.401,-43.62039 1.0567,-58.61523 -12.16,-27.94493 -30.6639,-40.89648 -66.6153,-40.89648 z m 486.9278,0 c -14.8035,0 -29.0793,2.72713 -43.8829,9.54296 -35.9513,16.35801 -67.672,49.07367 -79.832,89.28711 l -38.0683,129.50196 c -3.1721,9.54217 -4.7591,18.40303 -5.8165,26.58203 -6.3442,47.71086 28.0231,77.69922 72.4336,77.69922 13.2174,0 28.0214,-4.08852 43.3536,-11.58594 35.4226,-17.03958 66.0867,-48.39232 78.7753,-92.01367 l 38.5957,-129.50196 c 6.8731,-24.53701 7.3991,-43.62039 1.0547,-58.61523 -12.16,-27.94493 -30.6619,-40.89648 -66.6132,-40.89648 z m 722.1953,0 c -57.628,0 -108.3829,48.3926 -122.1289,95.42187 -7.4018,23.85543 -7.4011,42.25884 -1.0567,54.52734 12.6887,24.53702 24.318,29.98915 49.6953,40.21289 l 11.1035,4.77149 c 11.1027,4.77109 19.0341,10.22506 23.2637,15.67773 4.2295,5.45267 4.7594,14.31151 1.0586,25.89844 -5.287,18.40275 -24.3209,34.08008 -45.4687,34.08008 -18.5044,0 -30.6647,-14.99396 -24.3203,-36.12305 h -59.2168 c -5.2869,19.08434 -5.8136,35.44071 -1.584,50.43555 7.4018,27.26335 35.4226,48.39258 68.7304,48.39258 25.3774,0 50.2268,-10.22235 74.5469,-29.98828 23.7913,-19.76592 40.1804,-42.93967 47.582,-68.83985 6.8731,-23.85542 4.7593,-46.34909 -4.2285,-63.38867 -10.0453,-18.40276 -19.5638,-23.17255 -39.6543,-31.35156 l -18.5039,-6.81641 c -15.8609,-6.13425 -29.078,-14.99602 -22.2051,-37.48828 4.7583,-17.03959 20.6186,-34.75977 40.709,-34.75977 17.9757,0 28.5515,12.26734 22.2071,32.71485 h 58.1562 c 7.4017,-24.53701 5.2881,-45.66565 -5.8144,-64.75 -11.1026,-19.08434 -28.5511,-28.62695 -52.8711,-28.62695 z m -435.1153,3.4082 -95.6933,324.43555 h 63.4433 l 95.6914,-324.43555 z m -2115.834,59.98047 c 22.2053,0 25.9063,17.72063 19.0333,40.21289 l -9.5176,32.03515 h -62.3867 l 9.5156,-32.03515 c 6.8731,-22.49226 19.5641,-40.21289 43.3554,-40.21289 z m 1324.379,0 c 17.9756,0 25.3781,15.67553 19.5625,36.12304 l -38.0665,128.13868 c -5.8156,20.44751 -15.3333,39.53125 -42.2968,39.53125 -19.0331,0 -26.4343,-17.03887 -20.0899,-38.16797 l 38.0664,-129.50196 c 5.8156,-18.40276 21.1477,-36.12304 42.8243,-36.12304 z m 243.1992,0 c 18.5044,0 26.9634,14.99396 20.6191,36.12304 l -38.5937,130.86524 c -5.287,17.72118 -20.6211,36.12305 -41.2403,36.12305 -22.7338,0 -27.4935,-14.31255 -20.0918,-38.16797 l 38.0664,-128.82032 c 4.7583,-15.67642 21.1498,-36.12304 41.2403,-36.12304 z m 243.7265,0 c 17.9757,0 25.3782,15.67553 19.5625,36.12304 l -38.0664,128.13868 c -5.8156,20.44751 -15.3295,39.53125 -42.2929,39.53125 -19.0331,0 -26.4362,-17.03887 -20.0918,-38.16797 l 38.0664,-129.50196 c 5.8157,-18.40276 21.1458,-36.12304 42.8222,-36.12304 z m -1350.8125,122.0039 h 23.7911 l -8.9883,31.35157 c -6.873,23.17384 -15.8606,49.75586 -44.4102,49.75586 -17.9757,0 -28.0208,-14.31221 -22.2051,-34.07813 l 4.7578,-16.35937 c 6.3444,-20.44751 22.206,-30.66993 47.0547,-30.66993 z M 898.60742,761.65625 780.8789,939.71873 h 33.63672 l 23.49219,-38.1738 h 41.37891 l -5.60547,38.1738 h 34.16992 l 18.1543,-178.06248 z m 92.36919,0 -9.3438,25.0957 h 32.03519 l 9.3437,-25.0957 z m 308.60539,0 -68.0742,178.06248 h 31.502 l 30.4335,-79.55271 h 40.5762 l -30.4316,79.55271 h 31.5 l 68.0742,-178.06248 h -31.5 l -29.0996,76.08398 h -40.5781 l 29.0996,-76.08398 z m 134.0156,0 -9.3437,25.0957 h 32.0352 l 9.3437,-25.0957 z m 187.9395,0 -68.0762,178.06248 h 32.0352 l 34.1719,-89.16404 c 2.4026,-6.40704 11.2116,-14.41602 21.623,-14.41602 10.4114,0 13.0818,5.87331 9.6113,14.41602 l -33.9043,89.16404 h 32.0352 l 37.6426,-98.77537 c 1.6017,-3.73744 2.401,-6.67353 2.6679,-9.07617 1.8688,-12.01319 -8.8094,-20.82227 -23.4921,-20.82227 -13.348,0 -25.6283,4.80423 -36.3067,13.88086 l 24.0274,-63.26953 z m 268.2949,0 -117.7304,178.06248 h 33.6367 l 23.4922,-38.1738 h 41.3789 l -5.6055,38.1738 h 34.1699 l 18.1543,-178.06248 z m 203.6895,0 -68.0742,178.06248 h 32.0351 l 34.1699,-89.16404 c 2.4027,-6.40704 11.2136,-14.41602 21.625,-14.41602 10.4115,0 13.0799,5.87331 9.6094,14.41602 l -33.9023,89.16404 h 32.0351 l 37.6406,-98.77537 c 1.6018,-3.73744 2.403,-6.67353 2.67,-9.07617 1.8687,-12.01319 -8.8094,-20.82227 -23.4922,-20.82227 -13.348,0 -25.6283,4.80423 -36.3067,13.88086 l 24.0254,-63.26953 z m 122,0 -9.3438,25.0957 h 32.0352 l 9.3437,-25.0957 z m 468.25,0 -68.0762,178.06248 h 31.502 l 30.4335,-79.55271 h 40.5782 l -30.4336,79.55271 h 31.5019 l 68.0743,-178.06248 h -31.502 l -29.0977,76.08398 h -40.5781 l 29.0977,-76.08398 z m 134.0136,0 -9.3437,25.0957 h 32.0352 l 9.3437,-25.0957 z m 187.9395,0 -68.0742,178.06248 h 32.0351 l 34.1719,-89.16404 c 2.4026,-6.40704 11.2116,-14.41602 21.6231,-14.41602 10.4114,0 13.0798,5.87331 9.6093,14.41602 l -33.9023,89.16404 h 32.0351 l 37.6407,-98.77537 c 1.6017,-3.73744 2.4029,-6.67353 2.6699,-9.07617 1.8687,-12.01319 -8.8094,-20.82227 -23.4922,-20.82227 -13.348,0 -25.6282,4.80423 -36.3066,13.88086 l 24.0254,-63.26953 z m -1908.2305,49.38867 c -12.814,0 -24.5612,4.53737 -34.9726,13.08008 l 4.2715,-11.47852 h -32.0352 l -48.58589,127.07225 h 32.03509 l 34.4375,-89.96482 c 2.4027,-6.40704 10.9448,-13.88282 20.8223,-13.88282 9.6105,0 13.8819,5.87402 10.9453,13.88282 l -34.4375,89.96482 h 32.0352 l 34.4375,-89.96482 c 2.4026,-6.40704 10.9467,-13.88282 20.8242,-13.88282 10.1444,0 13.8806,5.34011 10.4101,13.88282 l -34.4375,89.96482 h 32.0352 l 37.1074,-97.17186 c 6.941,-17.8863 -4.2715,-31.50195 -25.3613,-31.50195 -15.7506,0 -26.6961,6.13913 -36.3067,13.08008 -3.2035,-7.74183 -10.6775,-13.08008 -23.2246,-13.08008 z m 412.4532,0 c -11.4793,0 -20.2889,2.40238 -26.9629,7.47461 -10.4115,8.27575 -13.8817,10.67913 -17.6192,20.55664 l -26.9629,70.47656 c -2.9365,8.0088 -4.8049,9.6103 -2.4023,18.4199 2.1357,7.4749 12.2798,13.3477 24.293,13.3477 14.4158,0 27.7634,-7.7407 35.2382,-14.6817 l -9.0761,23.7598 c -1.3348,4.0044 -2.9373,6.9399 -4.5391,8.8086 -5.0722,4.8053 -10.6776,7.209 -17.3516,7.209 -8.8096,0 -13.8818,-5.3396 -10.9453,-12.8145 h -32.0351 c -8.5427,22.6916 8.81,38.709 34.7051,38.709 18.9541,0 35.2389,-8.8095 45.6503,-17.6191 8.2758,-6.941 12.5464,-13.8829 16.5508,-24.0274 l 52.5918,-137.74997 h -32.0351 l -4.2715,11.7461 c -4.0044,-8.0088 -12.0141,-13.61524 -24.8281,-13.61524 z m 498.9492,0 c -29.0986,0 -55.2609,21.62275 -62.4688,40.04297 l -18.9551,49.65624 c -1.6017,4.5383 -2.6685,8.8087 -2.9355,13.0801 -0.5339,16.5515 13.614,27.4961 34.1699,27.4961 13.081,0 25.8957,-3.7361 38.1758,-11.211 13.348,-7.7418 21.09,-16.8182 25.3613,-28.5644 h -31.7695 c -2.4026,6.9409 -10.1433,14.1484 -20.5547,14.1484 -11.7462,0 -13.8826,-5.6056 -10.4121,-14.9492 l 18.9551,-49.65624 c 1.6017,-3.73744 3.4704,-6.67292 5.873,-8.80859 4.0044,-3.47048 8.5415,-6.14063 15.4824,-6.14063 9.6106,0 13.0811,6.94043 10.1446,14.94922 h 31.5019 c 8.8097,-22.69158 -6.4063,-40.04297 -32.5683,-40.04297 z m 294.9902,0 c -13.081,0 -25.8962,4.00426 -38.4434,11.7461 -12.2801,7.74183 -20.5561,16.81904 -24.5605,27.23046 l -18.4199,48.31835 c -1.3348,3.7374 -2.4023,7.743 -3.2031,11.4805 -3.4705,19.2211 12.0128,31.7676 34.4375,31.7676 14.4158,0 25.8954,-3.2031 34.705,-9.0762 9.0767,-5.8731 15.4846,-10.9462 18.9551,-14.6836 3.7374,-4.0044 6.1385,-8.0073 7.7402,-12.0117 l 1.0684,-2.9375 h -31.7676 c -3.4705,6.407 -10.679,12.5469 -21.3574,12.5469 -6.674,0 -13.0804,-5.3398 -10.6777,-11.2129 l 7.207,-18.9532 h 63.2695 l 13.6153,-35.23825 c 8.5427,-22.42461 -6.6733,-38.97656 -32.5684,-38.97656 z m 229.8516,0 c -13.0811,0 -25.8943,4.00426 -38.4414,11.7461 -12.2802,7.74183 -20.5562,16.81904 -24.5606,27.23046 l -18.4199,48.31835 c -1.3348,3.7374 -2.4023,7.743 -3.2031,11.4805 -3.4705,19.2211 12.0129,31.7676 34.4375,31.7676 14.4158,0 25.8954,-3.2031 34.705,-9.0762 9.0767,-5.8731 15.4827,-10.9462 18.9532,-14.6836 3.7374,-4.0044 6.1404,-8.0073 7.7422,-12.0117 l 1.0683,-2.9375 h -31.7676 c -3.4704,6.407 -10.679,12.5469 -21.3574,12.5469 -6.674,0 -13.0804,-5.3398 -10.6777,-11.2129 l 7.207,-18.9532 h 63.2695 l 13.6153,-35.23825 c 8.5427,-22.42461 -6.6752,-38.97656 -32.5703,-38.97656 z m 360.3984,0 c -11.4793,0 -20.2908,2.40238 -26.9648,7.47461 -10.4115,8.27575 -13.8817,10.67913 -17.6192,20.55664 l -26.9629,70.47656 c -2.9365,8.0088 -4.8049,9.6103 -2.4023,18.4199 2.1357,7.4749 12.2798,13.3477 24.293,13.3477 14.4158,0 27.7653,-7.7407 35.2402,-14.6817 l -9.0781,23.7598 c -1.3348,4.0044 -2.9354,6.9399 -4.5371,8.8086 -5.0723,4.8053 -10.6796,7.209 -17.3536,7.209 -8.8096,0 -13.8818,-5.3396 -10.9453,-12.8145 h -32.0351 c -8.5427,22.6916 8.81,38.709 34.7051,38.709 18.9541,0 35.2389,-8.8095 45.6503,-17.6191 8.2758,-6.941 12.5464,-13.8829 16.5508,-24.0274 l 52.5918,-137.74997 h -32.0351 l -4.2715,11.7461 c -4.0044,-8.0088 -12.0121,-13.61524 -24.8262,-13.61524 z m -1922.64842,1.60156 -48.32031,127.07225 h 32.03711 l 48.31832,-127.07225 z m 442.62112,0 -48.3203,127.07225 h 32.0351 l 48.3203,-127.07225 z m 781.9238,0 -48.3184,127.07225 h 32.0352 l 48.3183,-127.07225 z m 167.3848,0 -7.2071,127.07225 h 28.0313 l 90.2324,-127.07225 h -33.6367 l -53.3926,82.22265 9.6094,-82.22265 z m 434.8789,0 -48.3203,127.07225 h 32.0351 l 48.3203,-127.07225 z m -1905.56253,0.26758 -9.87695,64.87107 H 852.6914 Z m 991.22463,0 -9.8789,64.87107 h -30.166 z m -369.7403,22.95703 c 6.941,0 12.814,3.47188 11.7461,9.87891 0,1.3348 -0.8007,3.20345 -1.6015,5.87305 l -18.42,48.31838 c -1.8687,4.5383 -2.67,5.8731 -6.9414,10.9453 -2.6696,3.2035 -7.475,4.8066 -14.416,4.8066 -5.8731,0 -9.3429,-1.3356 -10.6777,-3.7383 -2.6696,-5.3391 -1.6031,-6.9414 0.2656,-12.0136 l 18.4219,-48.31838 c 2.6696,-7.47488 8.542,-15.75196 21.623,-15.75196 z m 1384.1875,0 c 6.941,0 12.8159,3.47188 11.7481,9.87891 0,1.3348 -0.8027,3.20345 -1.6035,5.87305 l -18.42,48.31838 c -1.8687,4.5383 -2.67,5.8731 -6.9414,10.9453 -2.6696,3.2035 -7.4731,4.8066 -14.414,4.8066 -5.8731,0 -9.3449,-1.3356 -10.6797,-3.7383 -2.6696,-5.3391 -1.6011,-6.9414 0.2676,-12.0136 l 18.4199,-48.31838 c 2.6696,-7.47488 8.542,-15.75196 21.623,-15.75196 z m -604.3984,0.26758 c 11.2123,0 13.0818,6.94033 9.6113,15.75 l -4.8047,12.54883 h -31.5019 l 4.8047,-12.54883 c 3.4705,-8.80967 9.8774,-15.75 21.8906,-15.75 z m 229.8535,0 c 11.2123,0 13.0818,6.94033 9.6113,15.75 l -4.8066,12.54883 h -31.5 l 4.8047,-12.54883 c 3.4705,-8.80967 9.8774,-15.75 21.8906,-15.75 z m -833.7168,78.21876 -16.8183,44.3164 38.9765,-18.9551 9.6114,-25.3613 z" /><path
       style="display:inline;fill:#ffcc00;stroke-width:0.966928"
       d="m 659.69072,467.0848 -66.7831,-77.01701 -11.8792,-15.70178 -10.8209,-20.88603 -9.0949,-24.92163 -1.7149,-8.50446 -0.8414,-8.30225 -0.6569,-9.4169 0.5778,-14.15207 2.2196,-10.89509 3.0491,-12.88766 5.5813,-15.09585 7.3728,-13.29701 9.8693,-15.61028 8.9755,-10.62107 11.5963,-11.5656 239.4528,-192.36227 -429.3221,180.63728 -136.2011,-160.29416 17.3261,210.69684 -192.8237,79.08368 204.6947,46.27952 14.2482,211.41105 109.628,-179.74609 z"
       id="path611" /><path
       style="display:inline;fill:#ffffff"
       d="m 517.79152,761.03484 152.0464,-124.26279 31.7365,-26.54124 10.2784,-9.8896 12.3787,-15.403 8.59231,-14.53162 7.04179,-16.64163 2.01383,-10.89021 2.49297,-10.76532 0.41847,-12.40038 0.16987,-11.70691 -0.77003,-14.46035 -2.16971,-14.68736 -2.8184,-14.45913 -7.4668,-17.69367 -6.5679,-11.72258 -11.2124,-16.12933 -22.0245,-25.8428 -22.2797,-24.5071 -18.356,-21.46254 -4.8155,-7.81096 -4.7144,-7.07874 -2.688,-5.84426 -2.4806,-6.62721 -1.1372,-7.08016 0.969,-6.88332 2.3103,-6.42653 3.9871,-7.92369 5.1781,-7.75828 8.0624,-7.37123 115.0769,-93.60977 127.2662,-102.92073 2.3856,-1.95671 2.1535,-1.75367 -0.8088,-0.90438 -1.1309,-1.28668 -53.0461,-66.43484 -1.0734,-1.26222 -0.2226,-0.2513 -1.3024,1.04885 -1.174,0.95144 -5.5293,4.40078 -6.0244,4.97051 -236.1838,189.50038 -11.1855,11.66804 -9.4155,12.8343 -7.3365,9.82756 -6.7744,11.94299 -5.3876,11.18736 -4.0725,8.50218 -4.3281,13.4924 -1.6901,12.17009 -0.5723,12.79845 -0.1234,13.12108 1.6205,14.87284 4.6207,15.03824 4.4708,11.74429 5.7264,10.10386 8.8089,13.91594 12.6125,16.61893 13.027,15.0835 36.907,40.98786 11.1626,11.61846 5.4874,9.79823 3.7144,9.05432 2.4622,9.99787 -0.028,10.30115 -1.7894,10.50418 -5.9734,11.9707 -11.4396,11.19968 -172.9172,141.97626 -1.6347,1.54617 -1.7421,1.61822 3.0555,3.51107 19.7983,23.60664 z"
       id="path609" /><g
       aria-label="tellar Robotics"
       transform="matrix(0.77568818,0,0,1,-2181.0761,-102.90013)"
       id="text478"
       style="font-size:681.585px;white-space:pre;shape-inside:url(#rect480);display:inline;fill:#2c34d6"><path
         d="m 3861.7713,711.44075 h 81.7902 l 104.2826,-273.31559 h 43.6214 l 19.0844,-51.11888 H 4067.61 l 37.4872,-98.14824 -100.8746,49.07412 -18.4028,49.07412 h -40.2135 l -19.766,51.11888 h 40.2136 z"
         style="font-family:'Din Kursivschrift';-inkscape-font-specification:'Din Kursivschrift';text-align:center;text-anchor:middle;fill:#ffffff"
         id="path1051" /><path
         d="m 4163.7138,649.41652 c -17.0396,0 -33.3977,-13.6317 -27.2634,-28.62657 l 18.4028,-48.39254 h 161.5357 l 34.7608,-89.96922 c 21.8107,-57.25314 -17.0396,-99.51142 -83.1534,-99.51142 -33.3977,0 -66.1137,10.22378 -98.1482,29.98975 -31.3529,19.76596 -52.4821,42.93985 -62.7058,69.52167 l -47.0294,123.36689 c -3.4079,9.54219 -6.1343,19.76596 -8.179,29.30815 -8.8606,49.07412 30.6713,81.10862 87.9244,81.10862 36.8056,0 66.1138,-8.17902 88.6061,-23.17389 23.1739,-14.99487 39.5319,-27.94499 48.3925,-37.48718 9.5422,-10.22377 15.6765,-20.44755 19.766,-30.67132 l 2.7263,-7.49744 h -81.1086 c -8.8606,16.35804 -27.2634,32.0345 -54.5268,32.0345 z m 79.0639,-202.43075 c 28.6265,0 33.3976,17.72121 24.537,40.21351 l -12.2685,32.0345 h -80.427 l 12.2685,-32.0345 c 8.8606,-22.4923 25.2186,-40.21351 55.89,-40.21351 z"
         style="font-family:'Din Kursivschrift';-inkscape-font-specification:'Din Kursivschrift';text-align:center;text-anchor:middle;fill:#ffffff"
         id="path1053" /><path
         d="m 4584.9341,256.82355 h -81.7902 L 4360.011,631.01372 c -4.7711,12.95012 -6.1343,25.21865 -5.4527,36.12401 3.408,32.03449 36.8056,44.30302 79.0639,44.30302 h 17.7212 l 23.8555,-62.02423 h -6.1343 c -27.945,0 -29.9897,-9.54219 -21.8107,-31.35291 z"
         style="font-family:'Din Kursivschrift';-inkscape-font-specification:'Din Kursivschrift';text-align:center;text-anchor:middle;fill:#ffffff"
         id="path1055" /><path
         d="m 4749.1955,256.82355 h -81.7902 l -143.1328,374.19017 c -4.7711,12.95012 -6.1343,25.21865 -5.4527,36.12401 3.4079,32.03449 36.8056,44.30302 79.0639,44.30302 h 17.7212 l 23.8555,-62.02423 h -6.1343 c -27.945,0 -29.9897,-9.54219 -21.8107,-31.35291 z"
         style="font-family:'Din Kursivschrift';-inkscape-font-specification:'Din Kursivschrift';text-align:center;text-anchor:middle;fill:#ffffff"
         id="path1057" /><path
         d="m 4825.5324,678.72467 -12.2685,32.71608 h 81.7902 l 88.606,-232.42049 c 21.1292,-55.20838 -23.1739,-96.10349 -85.8797,-96.10349 -73.6112,0 -139.7249,49.75571 -158.1277,96.78508 h 81.1086 c 8.8606,-16.35804 29.3082,-32.0345 55.89,-32.0345 10.9053,0 17.7212,2.72634 21.8107,9.54219 7.4974,12.26853 4.7711,17.72121 0,31.35291 l -10.9054,27.94499 h -54.5268 c -17.0396,0 -32.0345,2.04475 -46.3477,6.13426 -13.6317,4.08951 -30.6714,12.26853 -49.7558,23.85548 -19.7659,12.26853 -34.0792,29.98974 -43.6214,53.84522 l -13.6317,36.80559 c -4.7711,12.95011 -10.9054,26.58181 -6.1343,40.21351 6.1343,25.90023 27.2634,38.16876 62.7059,38.16876 38.8503,0 68.8401,-18.40279 89.2876,-36.80559 z m 10.9054,-109.73518 h 30.6713 l -11.587,31.35291 c -8.8606,23.17389 -20.4475,49.7557 -57.2531,49.7557 -23.1739,0 -36.124,-14.31328 -28.6266,-34.07925 l 6.1343,-16.35804 c 8.179,-20.44755 28.6266,-30.67132 60.6611,-30.67132 z"
         style="font-family:'Din Kursivschrift';-inkscape-font-specification:'Din Kursivschrift';text-align:center;text-anchor:middle;fill:#ffffff"
         id="path1059" /><path
         d="m 5254.9306,450.39369 25.9002,-67.47692 c -45.6662,0 -92.014,18.4028 -120.6406,39.53194 l 12.9502,-34.76084 h -81.7903 l -124.0484,324.43447 h 81.7902 l 72.9296,-190.16222 c 14.3133,-36.80559 53.8452,-74.29277 111.0983,-74.29277 7.4975,0 15.6765,0.68159 21.8108,2.72634 z"
         style="font-family:'Din Kursivschrift';-inkscape-font-specification:'Din Kursivschrift';text-align:center;text-anchor:middle;fill:#ffffff"
         id="path1061" /><path
         d="m 5400.7899,711.44075 h 80.427 l 74.9744,-194.93331 h 51.1189 l 2.0447,194.93331 h 85.8797 l -6.1342,-208.56501 c 52.482,-21.81072 87.2428,-53.84522 102.9193,-96.10349 l 16.358,-42.25827 c 23.8555,-62.02424 -20.4475,-107.69043 -92.0139,-107.69043 H 5573.9125 Z M 5634.5736,459.2543 h -56.5716 l 53.8452,-141.76969 h 57.9348 c 34.0792,0 49.0741,17.72121 37.4871,47.71095 l -16.358,42.25827 c -10.2238,26.58182 -35.4424,51.80047 -76.3375,51.80047 z"
         style="font-family:'Din Kursivschrift';-inkscape-font-specification:'Din Kursivschrift';text-align:center;text-anchor:middle;fill:#ffffff"
         id="path1063" /><path
         d="m 5813.1492,482.42819 -49.0741,129.50115 c -4.0895,9.54219 -6.1343,18.4028 -7.4975,26.58182 -8.179,47.71095 36.124,77.70069 93.3772,77.70069 17.0396,0 36.124,-4.08951 55.89,-11.58695 45.6661,-17.03962 85.1981,-48.39253 101.5561,-92.01397 l 49.7557,-129.50116 c 8.8606,-24.53706 9.5422,-43.62144 1.3632,-58.61631 -15.6765,-27.94499 -39.5319,-40.8951 -85.8797,-40.8951 -19.0844,0 -37.4872,2.72634 -56.5716,9.54219 -46.3478,16.35804 -87.2429,49.07412 -102.9193,89.28764 z m 136.9986,-35.44242 c 23.1739,0 32.7161,15.67645 25.2186,36.124 l -49.0741,128.13799 c -7.4974,20.44755 -19.766,39.53193 -54.5268,39.53193 -24.5371,0 -34.0793,-17.03963 -25.9002,-38.16876 l 49.0741,-129.50116 c 7.4974,-18.40279 27.2634,-36.124 55.2084,-36.124 z"
         style="font-family:'Din Kursivschrift';-inkscape-font-specification:'Din Kursivschrift';text-align:center;text-anchor:middle;fill:#ffffff"
         id="path1065" /><path
         d="m 6158.713,715.53026 c 34.0793,0 66.7953,-9.54219 98.1483,-28.62657 32.0345,-19.08438 53.1636,-41.57668 64.069,-68.84008 l 60.661,-160.17248 c 7.4975,-18.4028 8.8606,-30.67133 0.6816,-53.84522 -4.7711,-13.6317 -24.5371,-21.12914 -57.9347,-21.12914 -32.0345,0 -62.0243,12.26853 -89.2877,35.44243 l 62.0243,-161.53565 h -81.7902 l -135.6354,355.10579 c -4.7711,11.58695 -6.8159,22.49231 -7.4975,33.39767 -2.0447,42.25827 34.7609,70.20325 86.5613,70.20325 z m 104.9641,-268.54449 c 23.8555,0 34.7608,14.99487 26.5818,36.124 l -49.7557,130.86433 c -6.8158,17.72121 -26.5818,36.124 -53.1636,36.124 -29.3082,0 -35.4424,-14.31328 -25.9002,-38.16876 l 49.0741,-128.81957 c 6.1342,-15.67645 27.2634,-36.124 53.1636,-36.124 z"
         style="font-family:'Din Kursivschrift';-inkscape-font-specification:'Din Kursivschrift';text-align:center;text-anchor:middle;fill:#ffffff"
         id="path1067" /><path
         d="m 6440.8887,482.42819 -49.0741,129.50115 c -4.0895,9.54219 -6.1343,18.4028 -7.4975,26.58182 -8.179,47.71095 36.124,77.70069 93.3772,77.70069 17.0396,0 36.124,-4.08951 55.89,-11.58695 45.6662,-17.03962 85.1981,-48.39253 101.5561,-92.01397 l 49.7557,-129.50116 c 8.8606,-24.53706 9.5422,-43.62144 1.3632,-58.61631 -15.6765,-27.94499 -39.5319,-40.8951 -85.8797,-40.8951 -19.0844,0 -37.4872,2.72634 -56.5716,9.54219 -46.3478,16.35804 -87.2429,49.07412 -102.9193,89.28764 z m 136.9986,-35.44242 c 23.1739,0 32.7161,15.67645 25.2186,36.124 l -49.0741,128.13799 c -7.4974,20.44755 -19.766,39.53193 -54.5268,39.53193 -24.5371,0 -34.0792,-17.03963 -25.9002,-38.16876 l 49.0741,-129.50116 c 7.4974,-18.40279 27.2634,-36.124 55.2084,-36.124 z"
         style="font-family:'Din Kursivschrift';-inkscape-font-specification:'Din Kursivschrift';text-align:center;text-anchor:middle;fill:#ffffff"
         id="path1069" /><path
         d="m 6676.7169,711.44075 h 81.7902 l 104.2825,-273.31559 h 43.6215 l 19.0843,-51.11888 h -42.9398 l 37.4872,-98.14824 -100.8746,49.07412 -18.4028,49.07412 h -40.2135 l -19.766,51.11888 h 40.2135 z"
         style="font-family:'Din Kursivschrift';-inkscape-font-specification:'Din Kursivschrift';text-align:center;text-anchor:middle;fill:#ffffff"
         id="path1071" /><path
         d="m 6847.1131,711.44075 h 81.7902 L 7052.2702,387.00628 H 6970.48 Z m 149.2672,-390.54821 h 81.7902 l 23.8554,-64.06899 h -81.7902 z"
         style="font-family:'Din Kursivschrift';-inkscape-font-specification:'Din Kursivschrift';text-align:center;text-anchor:middle;fill:#ffffff"
         id="path1073" /><path
         d="m 7144.2848,650.0981 c -29.9897,0 -35.4424,-14.31328 -26.5818,-38.16876 l 48.3926,-126.77481 c 4.0895,-9.54219 8.8606,-17.03963 14.9948,-22.49231 10.2238,-8.8606 21.8108,-15.67645 39.532,-15.67645 24.537,0 33.3976,17.72121 25.9002,38.16876 h 80.427 c 22.4923,-57.93473 -16.358,-102.23776 -83.1533,-102.23776 -74.2928,0 -141.0881,55.20839 -159.4909,102.23776 l -48.3926,126.77481 c -4.0895,11.58695 -6.8158,22.49231 -7.4974,33.39767 -1.3632,42.25827 34.7608,70.20325 87.2429,70.20325 33.3976,0 66.1137,-9.54219 97.4666,-28.62657 34.0793,-19.76596 53.8452,-42.93985 64.7506,-72.92959 h -81.1086 c -6.1343,17.72121 -25.9002,36.124 -52.4821,36.124 z"
         style="font-family:'Din Kursivschrift';-inkscape-font-specification:'Din Kursivschrift';text-align:center;text-anchor:middle;fill:#ffffff"
         id="path1075" /><path
         d="m 7423.7347,654.18761 c -23.8555,0 -39.5319,-14.99487 -31.3529,-36.124 h -76.3375 c -6.8159,19.08438 -7.4975,35.44242 -2.0448,50.43729 9.5422,27.2634 45.6662,48.39253 88.6061,48.39253 32.7161,0 64.7506,-10.22377 96.1035,-29.98974 30.6713,-19.76596 51.8004,-42.93985 61.3426,-68.84008 8.8606,-23.85548 6.1343,-46.34778 -5.4527,-63.38741 -12.9501,-18.4028 -25.2186,-23.17389 -51.1188,-31.35291 l -23.8555,-6.81585 c -20.4476,-6.13427 -37.4872,-14.99487 -28.6266,-37.48718 6.1343,-17.03962 26.5818,-34.76083 52.4821,-34.76083 23.1739,0 36.8056,12.26853 28.6265,32.71608 h 74.9744 c 9.5422,-24.53706 6.8158,-45.6662 -7.4974,-64.75058 -14.3133,-19.08438 -36.8056,-28.62657 -68.1585,-28.62657 -74.2928,0 -139.725,48.39254 -157.4462,95.4219 -9.5422,23.85548 -9.5422,42.25827 -1.3632,54.5268 16.3581,24.53706 31.353,29.98974 64.069,40.21352 l 14.3133,4.7711 c 14.3133,4.77109 24.5371,10.22377 29.9898,15.67645 5.4526,5.45268 6.1342,14.31329 1.3631,25.90023 -6.8158,18.4028 -31.3529,34.07925 -58.6163,34.07925 z"
         style="font-family:'Din Kursivschrift';-inkscape-font-specification:'Din Kursivschrift';text-align:center;text-anchor:middle;fill:#ffffff"
         id="path1077" /></g><g
       aria-label="Aim High, Achieve High"
       id="text834"
       style="font-size:266.96px;font-family:'Din Kursivschrift';-inkscape-font-specification:'Din Kursivschrift';text-align:center;text-anchor:middle;display:inline;fill:#ffffff"><path
         d="m 773.56688,927.24432 h 33.63696 l 23.49247,-38.17528 h 41.3788 l -5.60616,38.17528 h 34.17088 l 18.15328,-178.06231 h -27.49688 z m 71.81223,-61.93471 40.044,-64.87128 -9.87752,64.87128 z"
         id="path1080" /><path
         d="m 915.85681,927.24432 h 32.0352 l 48.31976,-127.07295 h -32.0352 z m 58.46424,-152.96807 h 32.03515 l 9.3436,-25.09424 h -32.03515 z"
         id="path1082" /><path
         d="m 1090.1817,798.56961 c -12.8141,0 -24.5603,4.53832 -34.9718,13.08104 l 4.2714,-11.47928 h -32.0352 l -48.58671,127.07295 h 32.03521 l 34.4378,-89.96551 c 2.4027,-6.40704 10.9454,-13.88192 20.8229,-13.88192 9.6106,0 13.8819,5.87312 10.9454,13.88192 l -34.4379,89.96551 h 32.0352 l 34.4379,-89.96551 c 2.4026,-6.40704 10.9453,-13.88192 20.8228,-13.88192 10.1445,0 13.882,5.3392 10.4115,13.88192 l -34.4379,89.96551 h 32.0352 l 37.1075,-97.17343 c 6.9409,-17.88632 -4.2714,-31.50128 -25.3612,-31.50128 -15.7507,0 -26.696,6.14008 -36.3066,13.08104 -3.2035,-7.74184 -10.6784,-13.08104 -23.2255,-13.08104 z"
         id="path1084" /><path
         d="m 1224.1956,927.24432 h 31.5013 l 30.4335,-79.55407 h 40.5779 l -30.4335,79.55407 h 31.5013 l 68.0748,-178.06231 h -31.5013 l -29.0986,76.0836 h -40.5779 l 29.0986,-76.0836 h -31.5013 z"
         id="path1086" /><path
         d="m 1358.4767,927.24432 h 32.0352 l 48.3198,-127.07295 h -32.0352 z m 58.4643,-152.96807 h 32.0352 l 9.3436,-25.09424 h -32.0352 z"
         id="path1088" /><path
         d="m 1502.6352,798.56961 c -11.4793,0 -20.289,2.40264 -26.963,7.47488 -10.4114,8.27576 -13.8819,10.6784 -17.6194,20.55592 l -26.9629,70.47743 c -2.9366,8.0088 -4.8053,9.61056 -2.4027,18.42024 2.1357,7.47488 12.2802,13.348 24.2934,13.348 14.4158,0 27.7638,-7.74184 35.2387,-14.6828 l -9.0766,23.75944 c -1.3348,4.0044 -2.9366,6.94096 -4.5383,8.80968 -5.0723,4.80528 -10.6784,7.20792 -17.3524,7.20792 -8.8097,0 -13.882,-5.3392 -10.9454,-12.81408 h -32.0352 c -8.5427,22.6916 8.8097,38.7092 34.7048,38.7092 18.9542,0 35.2387,-8.80968 45.6502,-17.61936 8.2757,-6.94096 12.5471,-13.88192 16.5515,-24.0264 l 52.5911,-137.75135 h -32.0352 l -4.2714,11.74624 c -4.0044,-8.0088 -12.0132,-13.61496 -24.8272,-13.61496 z m 16.0176,34.7048 c 0,1.3348 -0.8009,3.20352 -1.6018,5.87312 l -18.4202,48.31976 c -1.8688,4.53831 -2.6696,5.87311 -6.941,10.94535 -2.6696,3.20352 -7.4749,4.80528 -14.4158,4.80528 -5.8732,0 -9.3436,-1.3348 -10.6784,-3.73744 -2.6696,-5.3392 -1.6018,-6.94096 0.2669,-12.01319 l 18.4203,-48.31976 c 2.6696,-7.47488 8.5427,-15.75064 21.6237,-15.75064 6.941,0 12.8141,3.47048 11.7463,9.87752 z"
         id="path1090" /><path
         d="m 1658.5399,798.56961 c -13.348,0 -25.6282,4.80528 -36.3066,13.88192 l 24.0264,-63.26952 h -32.0352 l -68.0748,178.06231 h 32.0352 l 34.1709,-89.16463 c 2.4026,-6.40704 11.2123,-14.41584 21.6237,-14.41584 10.4115,0 13.0811,5.87312 9.6106,14.41584 l -33.9039,89.16463 h 32.0352 l 37.6413,-98.77519 c 1.6018,-3.73744 2.4027,-6.674 2.6696,-9.07664 1.8688,-12.0132 -8.8096,-20.82288 -23.4924,-20.82288 z"
         id="path1092" /><path
         d="m 1666.0143,946.19848 38.9762,-18.95416 9.6105,-25.3612 h -31.7682 z"
         id="path1094" /><path
         d="m 1764.7897,927.24432 h 33.6369 l 23.4925,-38.17528 h 41.3788 l -5.6062,38.17528 h 34.1709 l 18.1533,-178.06231 h -27.4969 z m 71.8122,-61.93471 40.044,-64.87128 -9.8775,64.87128 z"
         id="path1096" /><path
         d="m 1962.6073,903.21792 c -11.7462,0 -13.8819,-5.60616 -10.4114,-14.94976 l 18.9541,-49.65455 c 1.6018,-3.73744 3.4705,-6.674 5.8731,-8.80968 4.0044,-3.47048 8.5428,-6.14008 15.4837,-6.14008 9.6106,0 13.0811,6.94096 10.1445,14.94976 h 31.5013 c 8.8097,-22.6916 -6.4071,-40.044 -32.5691,-40.044 -29.0987,0 -55.2608,21.62376 -62.4687,40.044 l -18.9541,49.65455 c -1.6018,4.53832 -2.6696,8.80968 -2.9366,13.08104 -0.5339,16.55152 13.615,27.49688 34.1709,27.49688 13.081,0 25.8951,-3.73744 38.1753,-11.21232 13.348,-7.74184 21.0898,-16.81848 25.3612,-28.56472 h -31.7683 c -2.4026,6.94096 -10.1445,14.14888 -20.5559,14.14888 z"
         id="path1098" /><path
         d="m 2130.525,798.56961 c -13.348,0 -25.6281,4.80528 -36.3065,13.88192 l 24.0264,-63.26952 h -32.0352 l -68.0748,178.06231 h 32.0352 l 34.1709,-89.16463 c 2.4026,-6.40704 11.2123,-14.41584 21.6237,-14.41584 10.4115,0 13.0811,5.87312 9.6106,14.41584 l -33.9039,89.16463 h 32.0352 l 37.6413,-98.77519 c 1.6018,-3.73744 2.4027,-6.674 2.6696,-9.07664 1.8687,-12.0132 -8.8097,-20.82288 -23.4925,-20.82288 z"
         id="path1100" /><path
         d="m 2140.4022,927.24432 h 32.0352 l 48.3198,-127.07295 h -32.0352 z m 58.4642,-152.96807 h 32.0352 l 9.3436,-25.09424 H 2208.21 Z"
         id="path1102" /><path
         d="m 2255.7292,902.95096 c -6.674,0 -13.0811,-5.3392 -10.6784,-11.21232 l 7.2079,-18.95415 h 63.2695 l 13.615,-35.23872 c 8.5427,-22.42464 -6.674,-38.97616 -32.5692,-38.97616 -13.081,0 -25.8951,4.0044 -38.4422,11.74624 -12.2802,7.74184 -20.5559,16.81848 -24.5603,27.22992 l -18.4203,48.31976 c -1.3348,3.73743 -2.4026,7.74183 -3.2035,11.47927 -3.4705,19.22112 12.0132,31.76824 34.4379,31.76824 14.4158,0 25.8951,-3.20352 34.7048,-9.07664 9.0766,-5.87312 15.4836,-10.94536 18.9541,-14.6828 3.7375,-4.0044 6.1401,-8.0088 7.7419,-12.0132 l 1.0678,-2.93656 h -31.7682 c -3.4705,6.40704 -10.6784,12.54712 -21.3568,12.54712 z m 30.9673,-79.28711 c 11.2123,0 13.0811,6.94096 9.6106,15.75064 l -4.8053,12.54712 h -31.5013 l 4.8053,-12.54712 c 3.4705,-8.80968 9.8775,-15.75064 21.8907,-15.75064 z"
         id="path1104" /><path
         d="m 2348.8985,927.24432 h 28.0308 l 90.2325,-127.07295 h -33.6369 l -53.392,82.22368 9.6105,-82.22368 h -33.6369 z"
         id="path1106" /><path
         d="m 2485.5822,902.95096 c -6.674,0 -13.0811,-5.3392 -10.6784,-11.21232 l 7.2079,-18.95415 h 63.2695 l 13.615,-35.23872 c 8.5427,-22.42464 -6.674,-38.97616 -32.5691,-38.97616 -13.0811,0 -25.8952,4.0044 -38.4423,11.74624 -12.2801,7.74184 -20.5559,16.81848 -24.5603,27.22992 l -18.4202,48.31976 c -1.3348,3.73743 -2.4027,7.74183 -3.2036,11.47927 -3.4704,19.22112 12.0132,31.76824 34.4379,31.76824 14.4158,0 25.8951,-3.20352 34.7048,-9.07664 9.0766,-5.87312 15.4837,-10.94536 18.9541,-14.6828 3.7375,-4.0044 6.1401,-8.0088 7.7419,-12.0132 l 1.0678,-2.93656 h -31.7682 c -3.4705,6.40704 -10.6784,12.54712 -21.3568,12.54712 z m 30.9673,-79.28711 c 11.2124,0 13.0811,6.94096 9.6106,15.75064 l -4.8053,12.54712 h -31.5013 l 4.8053,-12.54712 c 3.4705,-8.80968 9.8775,-15.75064 21.8907,-15.75064 z"
         id="path1108" /><path
         d="m 2608.384,927.24432 h 31.5013 l 30.4334,-79.55407 h 40.578 l -30.4335,79.55407 h 31.5013 l 68.0748,-178.06231 h -31.5013 l -29.0986,76.0836 h -40.5779 l 29.0986,-76.0836 h -31.5013 z"
         id="path1110" /><path
         d="m 2742.6651,927.24432 h 32.0352 l 48.3198,-127.07295 h -32.0352 z m 58.4643,-152.96807 h 32.0352 l 9.3436,-25.09424 h -32.0352 z"
         id="path1112" /><path
         d="m 2886.8236,798.56961 c -11.4792,0 -20.2889,2.40264 -26.9629,7.47488 -10.4115,8.27576 -13.8819,10.6784 -17.6194,20.55592 l -26.9629,70.47743 c -2.9366,8.0088 -4.8053,9.61056 -2.4027,18.42024 2.1357,7.47488 12.2802,13.348 24.2934,13.348 14.4158,0 27.7638,-7.74184 35.2387,-14.6828 l -9.0766,23.75944 c -1.3348,4.0044 -2.9366,6.94096 -4.5384,8.80968 -5.0722,4.80528 -10.6784,7.20792 -17.3524,7.20792 -8.8096,0 -13.8819,-5.3392 -10.9453,-12.81408 h -32.0352 c -8.5427,22.6916 8.8097,38.7092 34.7048,38.7092 18.9541,0 35.2387,-8.80968 45.6501,-17.61936 8.2758,-6.94096 12.5472,-13.88192 16.5516,-24.0264 l 52.5911,-137.75135 h -32.0352 l -4.2714,11.74624 c -4.0044,-8.0088 -12.0132,-13.61496 -24.8273,-13.61496 z m 16.0176,34.7048 c 0,1.3348 -0.8008,3.20352 -1.6017,5.87312 l -18.4203,48.31976 c -1.8687,4.53831 -2.6696,5.87311 -6.9409,10.94535 -2.6696,3.20352 -7.4749,4.80528 -14.4159,4.80528 -5.8731,0 -9.3436,-1.3348 -10.6784,-3.73744 -2.6696,-5.3392 -1.6017,-6.94096 0.267,-12.01319 l 18.4202,-48.31976 c 2.6696,-7.47488 8.5428,-15.75064 21.6238,-15.75064 6.941,0 12.8141,3.47048 11.7462,9.87752 z"
         id="path1114" /><path
         d="m 3042.7284,798.56961 c -13.348,0 -25.6282,4.80528 -36.3066,13.88192 l 24.0264,-63.26952 h -32.0352 l -68.0748,178.06231 h 32.0352 l 34.1709,-89.16463 c 2.4027,-6.40704 11.2123,-14.41584 21.6238,-14.41584 10.4114,0 13.081,5.87312 9.6105,14.41584 l -33.9039,89.16463 h 32.0352 l 37.6414,-98.77519 c 1.6017,-3.73744 2.4026,-6.674 2.6696,-9.07664 1.8687,-12.0132 -8.8097,-20.82288 -23.4925,-20.82288 z"
         id="path1116" /></g></g></svg>
